<svg width="351" height="322" viewBox="0 0 351 322" fill="none" xmlns="http://www.w3.org/2000/svg">
<rect width="351" height="322" fill="white" fill-opacity="0.4"/>
<path d="M345.505 48.9292L345.573 35.1001C307.553 11.181 236.382 2.07842 205.549 0.517022L199.512 15.1304C190.927 14.047 190.228 20.7612 190.953 24.2538C188.434 24.7187 187.101 28.1939 186.749 29.8734C224.949 52.3616 307.385 65.9702 343.829 69.9635C351.285 71.1281 350.223 63.5954 348.76 59.6834C352.99 55.4089 348.352 50.7329 345.505 48.9292Z" fill="#D9D9D9"/>
<path d="M278.292 262.55L343.727 68.5529C290.947 64.1288 222.677 43.12 195.139 33.1686L169.509 238.478C174.474 243.438 179.693 251.924 224.109 263.26C259.642 272.328 275.036 266.565 278.292 262.55Z" fill="#1C0505"/>
<path d="M138 63L129 52.5C84.6 59.3 24.8333 99 0.5 118L5.5 133C-1.7 137.8 2.16667 143.333 5 145.5C3.4 147.5 4.66667 151 5.5 152.5C49.1 144.5 120.333 100.833 150.5 80C156.9 76 151.167 71 147.5 69C147.9 63 141.333 62.5 138 63Z" fill="#D9D9D9"/>
<path d="M227 268.5L149.5 79C106.7 110.2 41.3333 139 14 149.5L129 321.5C136 322 145.5 325 186.5 304.5C219.3 288.1 227.167 273.667 227 268.5Z" fill="#1C0505"/>
</svg>
